<svg viewBox="0 0 96 96" version="1.1" xmlns="http://www.w3.org/2000/svg" xmlns:xlink="http://www.w3.org/1999/xlink"><g stroke="none" stroke-width="1" fill="none" fill-rule="evenodd"><g id="svg-5years-sign" fill="#FFFFFF"><path d="M48.0000808,0.000484915862 C51.9004041,3.32327586 56.9574084,5.32871768 62.4828394,5.32871768 C68.0082705,5.32871768 73.0652748,3.32279095 76.9655981,0 L96.0000808,19.0344828 C92.4973869,24.013416 90.4407058,30.0834052 90.4407058,36.6332974 C90.4407058,41.3445582 91.504445,45.8070582 93.4051455,49.7940194 C95.0473869,53.2409483 96.0000808,57.16875 96.0000808,61.2413793 C96.0000808,75.8676724 84.1436153,87.7241379 69.5173222,87.7241379 L65.3606412,87.7241379 C58.3518588,87.7241379 52.0967942,90.950916 48.0000808,96 C43.9032866,90.950916 37.6483028,87.7241379 30.6395205,87.7241379 L26.4827586,87.7241379 C11.8565463,87.7241379 0,75.8676724 0,61.2413793 C0,57.16875 0.952774792,53.2409483 2.59501617,49.7940194 C4.49563579,45.8070582 5.55945583,41.3445582 5.55945583,36.6332974 C5.55945582,30.0834052 3.50261315,24.013416 8.0822069e-05,19.0344828 L19.0345636,0 C22.9348869,3.32279095 27.9918103,5.32871767 33.5173222,5.32871767 C39.0427532,5.32871767 44.0997576,3.32327586 48.0000808,0.000484915862 Z M62.3847558,59.9123837 C62.3847558,64.623162 60.6498277,68.5242597 57.1798291,71.6156768 C53.7098304,74.7072362 49.3039099,76.2528736 43.9622811,76.2528736 C40.2189494,76.2528736 36.7698724,75.453725 33.6154058,73.8554277 L36.832993,67.9249338 C38.8098718,68.9344371 41.4807218,69.4391176 44.8455431,69.4391176 C47.9159674,69.4391176 50.492172,68.5347916 52.5740858,66.726282 C54.6562843,64.9176301 55.6972411,62.6462832 55.6972411,59.9123837 C55.6972411,57.8513915 54.961142,56.1059314 53.4889437,54.675861 C52.0167455,53.2457906 50.2292998,52.5307554 48.1261798,52.5307554 C46.6541238,52.5307554 45.4659329,52.8252236 44.5616069,53.4140175 C43.6573521,54.0029537 42.5742674,55.1805415 41.3124238,56.9472079 L34.6248379,55.0544426 L35.6973907,33.2250898 L59.98731,33.2250898 L59.98731,39.9126045 L42.1956858,39.9126045 L41.7540548,46.8526018 C44.5300822,46.095581 46.6961805,45.7169995 48.2524211,45.7169995 C52.1220652,45.7169995 55.4447586,47.115474 58.2207859,49.9125653 C60.9968133,52.7095143 62.3847558,56.0428819 62.3847558,59.9123837 Z M21.9874426,21.8025173 C21.7164047,22.2973634 21.3258697,22.6839561 20.8158257,22.962307 C20.3057818,23.240658 19.7452346,23.3798314 19.1341675,23.3798314 C18.1633592,23.3798314 17.3983047,23.0443878 16.8389812,22.3734907 C16.2796576,21.7025936 16,20.8033195 16,19.6756413 C16,18.5432051 16.2796576,17.6474995 16.8389812,16.9884977 C17.3983047,16.3294959 18.1633592,16 19.1341675,16 C19.7353787,16 20.290998,16.1379839 20.8010419,16.4139557 C21.3110859,16.6899276 21.7065488,17.0777098 21.9874426,17.5773141 L20.8195217,18.169699 C20.656899,17.9317922 20.4844229,17.7581228 20.3020884,17.6486857 C19.9817709,17.4060208 19.5924678,17.2823111 19.1341675,17.277553 C18.7103628,17.277553 18.3604829,17.4048312 18.084517,17.6593915 C17.8085512,17.9139517 17.6175956,18.2101412 17.5116445,18.5479689 C17.4056933,18.8857965 17.3527185,19.2545465 17.3527185,19.6542298 C17.3527185,20.4298059 17.5104109,21.0328906 17.8258004,21.4635018 C18.1411899,21.8941131 18.5773079,22.1094155 19.1341675,22.1094155 C19.4643409,22.1094155 19.7452304,22.0463712 19.9768446,21.9202806 C20.2084587,21.79419 20.4893483,21.5550973 20.8195217,21.2029952 L21.9874426,21.8025173 Z M29.5789284,23.2584995 L28.4405751,23.2584995 L24.9072448,18.3552653 L24.9072448,23.2584995 L23.6136615,23.2584995 L23.6136615,16.1213319 L24.9072448,16.1213319 L28.3001289,20.8247253 L28.3001289,16.1213319 L29.5789284,16.1213319 L29.5789284,23.2584995 Z M37.5621852,18.298168 C37.5621852,18.6740607 37.4586996,19.0344841 37.2517252,19.3794489 C37.0447508,19.7244137 36.7687892,19.9896758 36.4238319,20.1752431 C36.0690187,20.3608104 35.6255089,20.4559716 35.0932891,20.4607298 L32.9939883,20.4607298 L32.9939883,23.2584995 L31.6486616,23.2584995 L31.6486616,16.1213319 L35.0932891,16.1213319 C35.5910132,16.1213319 36.034523,16.2212512 36.4238319,16.4210929 C36.7786451,16.6161764 37.0570707,16.87787 37.2591171,17.2061813 C37.4611635,17.5344927 37.5621852,17.8984846 37.5621852,18.298168 Z M36.2316424,18.298168 C36.2316424,18.0269543 36.1330846,17.8104623 35.9359662,17.6486857 C35.7388478,17.4869091 35.4752058,17.406022 35.1450324,17.406022 L32.9939883,17.406022 L32.9939883,19.1760396 L35.1450324,19.1760396 C35.4653499,19.1760396 35.7265279,19.0951525 35.9285743,18.9333759 C36.1306207,18.7715993 36.2316424,18.5598654 36.2316424,18.298168 Z M52.0946693,23.2584995 L46.5729167,23.2584995 L46.5729167,16.1213319 L47.8886757,16.1213319 L47.8886757,22.1593757 L52.0946693,22.1593757 L52.0946693,23.2584995 Z M54.593133,23.2584995 L53.277374,23.2584995 L53.277374,16.1213319 L54.593133,16.1213319 L54.593133,23.2584995 Z M61.474996,17.3774734 L59.3461275,17.3774734 L59.3461275,23.2584995 L58.0377604,23.2584995 L58.0377604,17.3774734 L55.9236758,17.3774734 L55.9236758,16.1213319 L61.474996,16.1213319 L61.474996,17.3774734 Z M64.1212978,23.2584995 L62.8055388,23.2584995 L62.8055388,16.1213319 L64.1212978,16.1213319 L64.1212978,23.2584995 Z M71.8827974,21.8025173 C71.6117595,22.2973634 71.2212245,22.6839561 70.7111805,22.962307 C70.2011366,23.240658 69.6405894,23.3798314 69.0295223,23.3798314 C68.058714,23.3798314 67.2936595,23.0443878 66.734336,22.3734907 C66.1750124,21.7025936 65.8953548,20.8033195 65.8953548,19.6756413 C65.8953548,18.5432051 66.1750124,17.6474995 66.734336,16.9884977 C67.2936595,16.3294959 68.058714,16 69.0295223,16 C69.6307335,16 70.1863528,16.1379839 70.6963967,16.4139557 C71.2064407,16.6899276 71.6019036,17.0777098 71.8827974,17.5773141 L70.7148765,18.169699 C70.5522538,17.9317922 70.3797777,17.7581228 70.1974432,17.6486857 C69.8771257,17.4060208 69.4878226,17.2823111 69.0295223,17.277553 C68.6057176,17.277553 68.2558377,17.4048312 67.9798719,17.6593915 C67.703906,17.9139517 67.5129504,18.2101412 67.4069993,18.5479689 C67.3010481,18.8857965 67.2480733,19.2545465 67.2480733,19.6542298 C67.2480733,20.4298059 67.4057657,21.0328906 67.7211552,21.4635018 C68.0365447,21.8941131 68.4726627,22.1094155 69.0295223,22.1094155 C69.3596957,22.1094155 69.6405852,22.0463712 69.8721994,21.9202806 C70.1038136,21.79419 70.3847031,21.5550973 70.7148765,21.2029952 L71.8827974,21.8025173 Z M79.2525261,21.1815837 C79.2525261,21.9000622 78.907574,22.4567557 78.2176595,22.8516809 C77.6755838,23.170476 77.05467,23.3298712 76.3548996,23.3298712 C75.1327653,23.3298712 74.1102287,22.873097 73.2872592,21.959535 L74.3516935,21.153035 C74.8740573,21.7573183 75.5319302,22.0594553 76.3253319,22.0594553 C76.7885603,22.0594553 77.1729355,21.9702416 77.478469,21.7918116 C77.7840026,21.6133815 77.9367671,21.393321 77.9367671,21.1316235 C77.9367671,20.8461354 77.7790747,20.6296435 77.4636852,20.4821413 C77.108872,20.3441554 76.8156628,20.2513731 76.5840486,20.2037917 L76.2366291,20.1038714 L75.9113853,20.0324997 L75.5417901,19.9325794 C74.8518755,19.7755609 74.3664787,19.5400367 74.0855849,19.2259998 C73.7800513,18.9072047 73.6272868,18.5075273 73.6272868,18.0269556 C73.6272868,17.4417049 73.8625934,16.964709 74.3332137,16.5959535 C74.803834,16.227198 75.41366,16.042823 76.16271,16.042823 C77.2616453,16.042823 78.1782323,16.411573 78.9124985,17.149084 L77.9367671,17.9984069 C77.4833947,17.5321097 76.8920483,17.3013435 76.16271,17.3061017 C75.793113,17.3061017 75.5023676,17.369146 75.2904653,17.4952366 C75.078563,17.6213272 74.9726134,17.7985651 74.9726134,18.0269556 C74.9726134,18.2315554 75.0526916,18.3861925 75.2128503,18.4908715 C75.3730091,18.5955505 75.682234,18.6978489 76.1405343,18.7977697 C77.0029275,18.9690626 77.6854398,19.1712803 78.1880919,19.404429 C78.5182652,19.5662056 78.7782113,19.8064878 78.9679378,20.1252829 C79.1576643,20.444078 79.2525261,20.7961747 79.2525261,21.1815837 Z M44.7988596,19.6542298 C44.7988596,20.7723917 44.520434,21.6728553 43.9635744,22.3556478 C43.4067148,23.0384402 42.6626039,23.3798314 41.7312193,23.3798314 C40.7160593,23.3798314 39.9399171,23.0110814 39.4027694,22.2735704 C38.8656216,21.5360594 38.5970518,20.6700917 38.5970518,19.6756413 C38.5970518,18.5336888 38.8767094,17.6356042 39.436033,16.9813606 C39.9953565,16.3271169 40.760411,16 41.7312193,16 C42.6330361,16 43.3697552,16.3378226 43.9413987,17.0134778 C44.5130422,17.6891331 44.7988596,18.5693749 44.7988596,19.6542298 Z M43.0174106,17.9091923 C42.716805,17.4880974 42.2880789,17.277553 41.7312193,17.277553 C41.1743597,17.277553 40.7382417,17.4904764 40.4228522,17.9163295 C40.1074627,18.3421826 39.9497703,18.9286141 39.9497703,19.6756413 C39.9497703,20.4417012 40.1074627,21.0388382 40.4228522,21.4670704 C40.7382417,21.8953026 41.1743597,22.1094155 41.7312193,22.1094155 C42.1698078,22.1094155 42.5270796,21.9773792 42.8030454,21.7133027 C43.0790112,21.4492262 43.2588791,21.1470891 43.3426544,20.8068824 C43.4264298,20.4666757 43.4683168,20.0895991 43.4683168,19.6756413 C43.4683168,18.9190978 43.3180163,18.3302873 43.0174106,17.9091923 Z"/></g></g></svg>